<svg width="62" height="53" viewBox="0 0 62 53" fill="none" xmlns="http://www.w3.org/2000/svg">
<path d="M30.7126 31.2689C39.3473 31.2689 46.3471 24.2691 46.3471 15.6345C46.3471 6.99979 39.3473 0 30.7126 0C22.0779 0 15.0781 6.99979 15.0781 15.6345C15.0781 24.2691 22.0779 31.2689 30.7126 31.2689Z" fill="#26A17B"/>
<path d="M4.63738 39.1366V42.1713H7.58677V44.4484H4.61707V49.0654C4.61707 50.0851 5.17972 50.5828 6.00442 50.5828C6.41676 50.5828 6.89411 50.4528 7.28411 50.2578L8.02146 52.5125C7.2638 52.8151 6.63411 52.9451 5.83176 52.9675C3.51206 53.0548 1.9947 51.7325 1.9947 49.0654V44.4484H0V42.1713H1.9947V39.419L4.63738 39.1366ZM55.486 42.0291L55.681 43.2641C56.5057 41.9418 57.6107 41.7468 58.6954 41.7468C59.8004 41.7468 60.8628 42.1794 61.4478 42.7645L60.2554 45.0618C59.7131 44.6068 59.2154 44.3671 58.3481 44.3671C56.9607 44.3671 55.681 45.1045 55.681 47.0768V52.7136H53.0363V42.0251L55.486 42.0291ZM49.0042 46.1262C48.8316 44.7388 47.7469 44.0441 46.2295 44.0441C44.7995 44.0441 43.6275 44.7388 43.2375 46.1262H49.0042ZM43.1948 48.3159C43.3675 49.6382 44.5172 50.5929 46.3819 50.5929C47.3569 50.5929 48.6366 50.2233 49.2439 49.5956L50.9339 51.2653C49.8066 52.4353 47.9642 53 46.3372 53C42.6525 53 40.4608 50.7229 40.4608 47.2982C40.4608 44.0462 42.6728 41.7041 46.1422 41.7041C49.7193 41.7041 51.9536 43.9162 51.5413 48.3159H43.1948ZM31.5313 37.54V43.4795C32.486 42.2444 33.656 41.8748 34.8707 41.8748C37.9054 41.8748 39.2501 43.9345 39.2501 47.0789V52.7156H36.6054V47.1012C36.6054 45.1492 35.5857 44.3265 34.176 44.3265C32.614 44.3265 31.5313 45.6488 31.5313 47.2535V52.7176H28.8866V37.5421L31.5313 37.54ZM24.5072 39.0147V42.0494H27.4566V44.3265H24.4869V48.9436C24.4869 49.9633 25.0516 50.4609 25.8742 50.4609C26.2866 50.4609 26.7639 50.3309 27.1539 50.1359L27.8913 52.3906C27.1336 52.6933 26.5039 52.8233 25.7016 52.8456C23.3819 52.933 21.8645 51.6086 21.8645 48.9436V44.3265H19.8698V42.0494H21.8645V39.2971L24.5072 39.0147ZM17.2007 46.1262C17.0281 44.7388 15.9434 44.0441 14.426 44.0441C12.996 44.0441 11.824 44.7388 11.434 46.1262H17.2007ZM11.3913 48.3159C11.564 49.6382 12.7137 50.5929 14.5784 50.5929C15.5534 50.5929 16.8331 50.2233 17.4404 49.5956L19.1304 51.2653C18.0031 52.4353 16.1607 53 14.5337 53C10.847 53 8.65725 50.7229 8.65725 47.2982C8.65725 44.0462 10.8693 41.7041 14.3367 41.7041C17.9137 41.7041 20.1461 43.9162 19.7358 48.3159H11.3913Z" fill="#5B5A5D"/>
<path d="M38.7753 8.31299H23.4534V12.0814H29.2648V17.6202H32.9638V12.0814H38.7753V8.31299Z" fill="white"/>
<path d="M31.1499 18.2104C26.3425 18.2104 22.4449 17.4353 22.4449 16.479C22.4449 15.5229 26.3423 14.7477 31.1499 14.7477C35.9573 14.7477 39.8547 15.5229 39.8547 16.479C39.8547 17.4353 35.9573 18.2104 31.1499 18.2104ZM40.9241 16.7677C40.9241 15.5346 36.5481 14.5352 31.1499 14.5352C25.7519 14.5352 21.3755 15.5346 21.3755 16.7677C21.3755 17.8535 24.7688 18.7582 29.2654 18.9587V26.9097H32.9641V18.9618C37.4954 18.7676 40.9241 17.8591 40.9241 16.7677Z" fill="white"/>
</svg>
