<svg width="133" height="61" viewBox="0 0 133 61" fill="none" xmlns="http://www.w3.org/2000/svg">
<g clip-path="url(#clip0_3_259)">
<path d="M83.8848 10H99.0322C101.147 10 102.462 11.7235 101.969 13.8449L94.9163 44.1228C94.4186 46.2368 92.3016 47.9618 90.1857 47.9618H75.0398C72.9283 47.9618 71.6102 46.2368 72.1035 44.1228L79.1586 13.8449C79.6519 11.7235 81.7678 10 83.8848 10Z" fill="#E21836"/>
<path d="M97.7718 10H115.191C117.305 10 116.352 11.7235 115.854 13.8449L108.803 44.1228C108.309 46.2368 108.463 47.9618 106.344 47.9618H88.9253C86.8068 47.9618 85.4957 46.2368 85.9934 44.1228L93.0441 13.8449C93.5448 11.7235 95.6563 10 97.7718 10Z" fill="#00447C"/>
<path d="M114.5 10H129.648C131.765 10 133.08 11.7235 132.583 13.8449L125.532 44.1228C125.034 46.2368 122.915 47.9618 120.798 47.9618H105.658C103.539 47.9618 102.225 46.2368 102.722 44.1228L109.774 13.8449C110.267 11.7235 112.382 10 114.5 10Z" fill="#007B84"/>
<path d="M87.8404 19.7034C86.2827 19.7192 85.8227 19.7034 85.6757 19.6687C85.6193 19.9371 84.5681 24.7859 84.5652 24.7899C84.3389 25.7709 84.1742 26.4702 83.6148 26.9217C83.2973 27.1842 82.9266 27.3109 82.4969 27.3109C81.8061 27.3109 81.4037 26.9679 81.3361 26.3173L81.3232 26.0939C81.3232 26.0939 81.5336 24.7799 81.5336 24.7726C81.5336 24.7726 82.6368 20.3539 82.8343 19.7698C82.8447 19.7366 82.8476 19.7192 82.8502 19.7034C80.7029 19.7222 80.3223 19.7034 80.296 19.6687C80.2816 19.7163 80.2285 19.9902 80.2285 19.9902L79.102 24.9705L79.0053 25.3928L78.8181 26.7744C78.8181 27.1842 78.8986 27.5187 79.0588 27.8015C79.572 28.6983 81.0359 28.8327 81.8641 28.8327C82.9311 28.8327 83.932 28.606 84.6084 28.1921C85.7824 27.4984 86.0896 26.4141 86.3636 25.4504L86.4906 24.9561C86.4906 24.9561 87.627 20.3668 87.8201 19.7698C87.8275 19.7366 87.8304 19.7192 87.8404 19.7034ZM91.707 23.4055C91.433 23.4055 90.9324 23.472 90.4827 23.6924C90.3195 23.7762 90.1652 23.873 90.0024 23.9693L90.1493 23.4388L90.0688 23.3494C89.1152 23.5425 88.9018 23.5684 88.0208 23.6924L87.947 23.7415C87.8447 24.5896 87.7539 25.2272 87.3747 26.8942C87.2304 27.5085 87.0805 28.1288 86.9302 28.7417L86.9708 28.8196C87.8735 28.7719 88.1475 28.7719 88.932 28.7849L88.9955 28.7158C89.0952 28.2052 89.1081 28.0856 89.3289 27.0514C89.4327 26.5611 89.649 25.4838 89.7557 25.1002C89.9518 25.0094 90.1452 24.92 90.3298 24.92C90.7696 24.92 90.716 25.3036 90.6991 25.4565C90.6802 25.7131 90.52 26.5512 90.3557 27.2708L90.246 27.7352C90.1696 28.0782 90.0858 28.4116 90.0094 28.7516L90.0426 28.8196C90.9324 28.7719 91.2038 28.7719 91.9636 28.7849L92.0529 28.7158C92.1903 27.9183 92.2305 27.7049 92.4742 26.5438L92.5968 26.0103C92.8349 24.9662 92.9545 24.4367 92.7744 24.0055C92.5838 23.5222 92.1268 23.4055 91.707 23.4055ZM96.0264 24.4987C95.5534 24.5895 95.2518 24.6501 94.952 24.6892C94.6548 24.7369 94.365 24.7801 93.9079 24.8436L93.8717 24.8764L93.8385 24.9026C93.7909 25.243 93.7576 25.5373 93.6945 25.8832C93.641 26.241 93.5586 26.6475 93.4246 27.2316C93.3209 27.6787 93.2673 27.8345 93.2083 27.9918C93.1507 28.1491 93.0872 28.3019 92.9705 28.7416L92.9978 28.7822L93.0207 28.8195C93.4479 28.7992 93.7274 28.7848 94.0146 28.7822C94.3015 28.7719 94.5987 28.7822 95.0587 28.7848L95.099 28.752L95.1421 28.7158C95.2086 28.3193 95.2186 28.2126 95.2592 28.0191C95.2994 27.8116 95.3688 27.5244 95.539 26.7572C95.6195 26.3968 95.7092 26.0376 95.7927 25.6698C95.8795 25.3036 95.9703 24.9429 96.0567 24.5825L96.0438 24.539L96.0264 24.4987ZM96.0365 23.0248C95.6067 22.7711 94.8524 22.8516 94.3448 23.202C93.8386 23.5454 93.781 24.0327 94.2093 24.2897C94.6317 24.5363 95.3889 24.4628 95.8921 24.1095C96.3972 23.7588 96.4603 23.2758 96.0365 23.0248ZM98.6355 28.899C99.505 28.899 100.396 28.6594 101.067 27.9483C101.583 27.3716 101.82 26.5136 101.902 26.1603C102.169 24.9891 101.961 24.4423 101.7 24.1093C101.303 23.6017 100.603 23.4388 99.8757 23.4388C99.4385 23.4388 98.3974 23.482 97.584 24.2319C96.9999 24.7728 96.73 25.5068 96.5672 26.2105C96.4029 26.9275 96.2139 28.2182 97.4009 28.6985C97.7671 28.8558 98.2951 28.899 98.6355 28.899ZM98.5676 26.264C98.768 25.3772 99.0047 24.6329 99.6087 24.6329C100.082 24.6329 100.116 25.1867 99.9059 26.0764C99.8683 26.274 99.6955 27.0083 99.4618 27.321C99.2986 27.5518 99.1055 27.6917 98.8921 27.6917C98.8286 27.6917 98.4509 27.6917 98.445 27.1309C98.442 26.854 98.4985 26.5712 98.5676 26.264ZM104.075 28.785L104.143 28.7159C104.24 28.2053 104.256 28.0853 104.469 27.0516C104.576 26.5613 104.796 25.4839 104.9 25.1003C105.097 25.0091 105.287 24.9198 105.477 24.9198C105.914 24.9198 105.861 25.3034 105.844 25.4562C105.828 25.7132 105.667 26.5509 105.5 27.2705L105.396 27.735C105.317 28.0783 105.231 28.4113 105.154 28.7518L105.187 28.8197C106.08 28.7721 106.341 28.7721 107.105 28.785L107.198 28.7159C107.332 27.9181 107.368 27.7047 107.619 26.5439L107.739 26.01C107.978 24.9659 108.099 24.4368 107.922 24.0056C107.726 23.5223 107.266 23.4056 106.852 23.4056C106.577 23.4056 106.074 23.4717 105.627 23.6925C105.467 23.7763 105.307 23.8727 105.15 23.9694L105.287 23.4389L105.213 23.3492C104.26 23.5426 104.042 23.5685 103.162 23.6925L103.095 23.7416C102.988 24.5897 102.901 25.2269 102.522 26.8943C102.378 27.5086 102.228 28.1289 102.078 28.7418L102.118 28.8197C103.022 28.7721 103.292 28.7721 104.075 28.785ZM110.635 28.8195C110.691 28.5456 111.024 26.9218 111.027 26.9218C111.027 26.9218 111.311 25.7304 111.328 25.6872C111.328 25.6872 111.418 25.5631 111.507 25.514H111.638C112.879 25.514 114.279 25.514 115.377 24.7065C116.124 24.1527 116.634 23.3349 116.862 22.341C116.921 22.0974 116.965 21.8075 116.965 21.5177C116.965 21.1371 116.888 20.7605 116.667 20.4662C116.108 19.6831 114.993 19.6687 113.706 19.6628C113.702 19.6628 113.072 19.6687 113.072 19.6687C111.425 19.689 110.764 19.6831 110.493 19.6499C110.47 19.7699 110.427 19.9833 110.427 19.9833C110.427 19.9833 109.837 22.7176 109.837 22.7221C109.837 22.7221 108.425 28.5356 108.359 28.8095C109.797 28.7922 110.386 28.7922 110.635 28.8195ZM111.728 23.9622C111.728 23.9622 112.355 21.2334 112.352 21.2438L112.372 21.1038L112.381 20.9971L112.632 21.023C112.632 21.023 113.926 21.1341 113.956 21.1371C114.467 21.3346 114.677 21.8437 114.53 22.5083C114.396 23.1156 114.002 23.6263 113.496 23.8729C113.079 24.0819 112.568 24.0992 112.042 24.0992H111.702L111.728 23.9622ZM115.633 26.3145C115.468 27.0212 115.277 28.312 116.458 28.772C116.835 28.9322 117.172 28.9798 117.515 28.9625C117.877 28.9429 118.213 28.7613 118.524 28.4999C118.496 28.6073 118.468 28.7148 118.44 28.8226L118.493 28.8916C119.343 28.8558 119.606 28.8558 120.527 28.8628L120.61 28.7993C120.745 28.0092 120.871 27.242 121.221 25.7305C121.391 25.0065 121.561 24.2895 121.735 23.5684L121.708 23.489C120.758 23.6651 120.504 23.7028 119.589 23.8324L119.52 23.8889C119.511 23.9623 119.501 24.0329 119.492 24.1034C119.35 23.8737 119.144 23.6777 118.826 23.5555C118.42 23.3956 117.465 23.6016 116.644 24.3489C116.068 24.8824 115.791 25.6134 115.633 26.3145ZM117.629 26.3577C117.833 25.4868 118.066 24.7499 118.672 24.7499C119.055 24.7499 119.256 25.1032 119.215 25.7057C119.183 25.856 119.148 26.0144 119.106 26.1934C119.046 26.4523 118.98 26.7089 118.916 26.9658C118.851 27.1416 118.775 27.3073 118.692 27.4177C118.536 27.6385 118.166 27.7755 117.952 27.7755C117.892 27.7755 117.518 27.7755 117.505 27.2246C117.502 26.9503 117.559 26.6679 117.629 26.3577ZM128.052 23.482L127.979 23.3982C127.038 23.5887 126.868 23.6189 126.004 23.7356L125.941 23.7991C125.938 23.8094 125.935 23.8253 125.931 23.8397L125.928 23.8253C125.285 25.3092 125.303 24.9891 124.78 26.1572C124.777 26.1041 124.777 26.0708 124.774 26.0143L124.643 23.482L124.561 23.3982C123.576 23.5887 123.552 23.6189 122.643 23.7356L122.572 23.7991C122.562 23.8294 122.562 23.8626 122.556 23.8988L122.562 23.9117C122.675 24.4929 122.648 24.3633 122.762 25.2804C122.815 25.7304 122.886 26.1831 122.939 26.6276C123.029 27.3715 123.079 27.7378 123.189 28.8731C122.575 29.8869 122.429 30.2706 121.838 31.1603L121.842 31.1692L121.425 31.8279C121.378 31.8973 121.334 31.9449 121.274 31.9652C121.207 31.9981 121.121 32.004 121.001 32.004H120.77L120.427 33.1448L121.604 33.1651C122.295 33.1622 122.729 32.8391 122.963 32.4049L123.703 31.1371H123.691L123.769 31.0477C124.266 29.9763 128.052 23.482 128.052 23.482ZM115.633 38.4653H115.134L116.982 32.3545H117.595L117.789 31.725L117.808 32.4251C117.785 32.8578 118.125 33.2414 119.02 33.1779H120.054L120.41 32.0012H120.021C119.797 32.0012 119.693 31.9447 119.706 31.8236L119.687 31.1114H117.772V31.1151C117.153 31.128 115.304 31.1746 114.93 31.2742C114.477 31.3909 113.999 31.7343 113.999 31.7343L114.187 31.104H112.395L112.022 32.3545L110.15 38.5587H109.787L109.43 39.7268H112.998L112.879 40.1164H114.637L114.753 39.7268H115.247L115.633 38.4653ZM114.169 33.5962C113.883 33.6756 113.349 33.9163 113.349 33.9163L113.823 32.3545H115.247L114.903 33.4924C114.903 33.4924 114.464 33.5183 114.169 33.5962ZM114.197 35.8273C114.197 35.8273 113.75 35.8834 113.455 35.9499C113.166 36.0377 112.622 36.3146 112.622 36.3146L113.112 34.6894H114.543L114.197 35.8273ZM113.399 38.4797H111.972L112.385 37.1081H113.809L113.399 38.4797ZM116.838 34.6894H118.895L118.6 35.6471H116.514L116.201 36.6942H118.026L116.644 38.6395C116.548 38.7824 116.461 38.833 116.365 38.8732C116.268 38.9223 116.141 38.9799 115.994 38.9799H115.488L115.14 40.1267H116.464C117.152 40.1267 117.559 39.8136 117.859 39.4027L118.806 38.106L119.01 39.4226C119.053 39.6692 119.23 39.8136 119.35 39.8697C119.482 39.9362 119.619 40.0503 119.813 40.0672C120.02 40.0761 120.17 40.0831 120.27 40.0831H120.921L121.311 38.7998H121.055C120.907 38.7998 120.654 38.775 120.61 38.7289C120.567 38.6728 120.567 38.5864 120.544 38.4549L120.338 37.1354H119.492L119.863 36.6942H121.944L122.264 35.6471H120.338L120.638 34.6894H122.559L122.915 33.5083H117.188L116.838 34.6894ZM99.456 38.7463L99.9363 37.1484H101.91L102.271 35.9599H100.295L100.597 34.9764H102.528L102.886 33.8256H98.0541L97.7037 34.9764H98.8014L98.5086 35.9599H97.408L97.0432 37.1687H98.1405L97.5003 39.2828C97.4139 39.5627 97.5409 39.6694 97.6214 39.7993C97.7037 39.926 97.7871 40.0098 97.9747 40.0574C98.1682 40.1006 98.3007 40.1264 98.4809 40.1264H100.706L101.103 38.8098L100.116 38.9453C99.926 38.9453 99.3984 38.9225 99.456 38.7463ZM99.6824 31.0968L99.1821 32.001C99.075 32.1985 98.9787 32.3211 98.8919 32.3776C98.8155 32.4252 98.6641 32.4452 98.4448 32.4452H98.1838L97.8349 33.6019H98.7018C99.1186 33.6019 99.4387 33.449 99.5916 33.3726C99.7559 33.2848 99.7991 33.335 99.9261 33.2124L100.219 32.9587H102.926L103.285 31.7544H101.304L101.65 31.0968H99.6824ZM103.679 38.7696C103.633 38.7031 103.666 38.5861 103.736 38.3424L104.476 35.8935H107.108C107.492 35.8879 107.769 35.8835 107.949 35.8706C108.143 35.8503 108.353 35.7812 108.582 35.6572C108.819 35.5272 108.94 35.3902 109.042 35.2329C109.156 35.076 109.339 34.7327 109.497 34.2032L110.427 31.1041L107.695 31.12C107.695 31.12 106.854 31.244 106.484 31.381C106.11 31.5339 105.577 31.9607 105.577 31.9607L105.823 31.1111H104.136L101.774 38.9453C101.69 39.2495 101.634 39.4703 101.621 39.6029C101.616 39.7457 101.801 39.8872 101.921 39.9939C102.062 40.1006 102.271 40.0832 102.472 40.1006C102.682 40.1164 102.982 40.1264 103.396 40.1264H104.693L105.091 38.7825L103.93 38.8921C103.806 38.8921 103.716 38.8257 103.679 38.7696ZM104.954 34.2394H107.718L107.543 34.7903C107.518 34.8032 107.459 34.7629 107.177 34.7962H104.783L104.954 34.2394ZM105.507 32.3919H108.295L108.095 33.0554C108.095 33.0554 106.781 33.0424 106.57 33.0812C105.644 33.2414 105.104 33.7362 105.104 33.7362L105.507 32.3919ZM107.604 36.6349C107.582 36.7173 107.545 36.7675 107.495 36.8051C107.439 36.8413 107.348 36.8542 107.212 36.8542H106.818L106.842 36.1834H105.203L105.137 39.463C105.134 39.6997 105.157 39.8367 105.33 39.9463C105.503 40.0833 106.037 40.1007 106.755 40.1007H107.782L108.152 38.8731L107.258 38.9222L106.961 38.9395C106.921 38.9222 106.882 38.9063 106.839 38.8631C106.801 38.8258 106.738 38.8487 106.748 38.612L106.755 37.7713L107.692 37.7326C108.198 37.7326 108.415 37.5679 108.599 37.411C108.776 37.2607 108.833 37.0879 108.9 36.8542L109.057 36.1099H107.769L107.604 36.6349Z" fill="#FEFEFE"/>
</g>
<g clip-path="url(#clip1_3_259)">
<path d="M38.6409 0.0229492C34.4873 0.0229492 30.7755 2.17582 30.7755 6.15342C30.7755 10.7149 37.3586 11.03 37.3586 13.3216C37.3586 14.2865 36.2528 15.1502 34.3642 15.1502C31.6839 15.1502 29.6806 13.9433 29.6806 13.9433L28.8235 17.9572C28.8235 17.9572 31.1312 18.9766 34.1951 18.9766C38.7362 18.9766 42.3095 16.718 42.3095 12.6725C42.3095 7.85237 35.6991 7.54665 35.6991 5.41971C35.6991 4.66375 36.6068 3.83559 38.49 3.83559C40.6148 3.83559 42.3484 4.71335 42.3484 4.71335L43.1873 0.836703C43.1873 0.836703 41.301 0.0229492 38.6409 0.0229492ZM0.639906 0.315554L0.539307 0.900705C0.539307 0.900705 2.28674 1.22048 3.86055 1.85845C5.88694 2.58993 6.03134 3.01581 6.37261 4.33847L10.0915 18.6749H15.0769L22.7571 0.315554H17.7832L12.8482 12.7981L10.8345 2.21728C10.6498 1.00634 9.71428 0.315554 8.56922 0.315554H0.639906ZM24.7571 0.315554L20.8553 18.6748H25.5983L29.4864 0.315495H24.7571V0.315554ZM51.2104 0.315554C50.0666 0.315554 49.4607 0.927875 49.016 1.99787L42.0672 18.6748H47.0411L48.0034 15.8953H54.063L54.6482 18.6748H59.0368L55.2082 0.315554H51.2104ZM51.8572 5.27566L53.3315 12.165H49.3817L51.8572 5.27566Z" fill="#1434CB"/>
</g>
<g clip-path="url(#clip2_3_259)">
<path d="M48.3207 60.5661V60.6484H48.3974C48.4118 60.6486 48.426 60.645 48.4386 60.6379C48.4436 60.6343 48.4476 60.6296 48.4503 60.6241C48.453 60.6186 48.4543 60.6125 48.454 60.6064C48.4543 60.6004 48.453 60.5944 48.4503 60.5891C48.4476 60.5837 48.4435 60.5791 48.4386 60.5758C48.4262 60.5683 48.4119 60.5647 48.3974 60.5653H48.3207V60.5661ZM48.3983 60.5079C48.4311 60.5059 48.4637 60.5153 48.4904 60.5346C48.5011 60.5434 48.5096 60.5545 48.5152 60.5672C48.5208 60.5798 48.5234 60.5936 48.5227 60.6074C48.5232 60.6193 48.5211 60.6312 48.5166 60.6422C48.5122 60.6532 48.5054 60.6632 48.4968 60.6714C48.4762 60.6893 48.4504 60.7 48.4231 60.702L48.526 60.8193H48.4468L48.3522 60.7029H48.3216V60.8193H48.2553V60.5081H48.3993L48.3983 60.5079ZM48.3777 60.9266C48.4124 60.9269 48.4468 60.9199 48.4787 60.906C48.5094 60.8928 48.5373 60.8739 48.5609 60.8503C48.5846 60.8267 48.6036 60.7988 48.6167 60.768C48.6437 60.7029 48.6437 60.6296 48.6167 60.5644C48.6034 60.5338 48.5845 60.5059 48.5609 60.4822C48.5373 60.4586 48.5094 60.4397 48.4787 60.4265C48.4466 60.4133 48.4123 60.4068 48.3777 60.4071C48.3425 60.4068 48.3076 60.4134 48.2749 60.4265C48.2435 60.4394 48.2149 60.4583 48.1908 60.4822C48.1544 60.5195 48.1298 60.5667 48.12 60.6179C48.1102 60.6691 48.1158 60.722 48.1358 60.7701C48.1484 60.801 48.167 60.829 48.1908 60.8524C48.2149 60.8762 48.2435 60.8951 48.2749 60.9081C48.3074 60.922 48.3424 60.929 48.3777 60.9287M48.3777 60.3323C48.4681 60.3322 48.5549 60.3676 48.6193 60.431C48.6504 60.4614 48.6752 60.4977 48.6921 60.5377C48.7097 60.5788 48.7188 60.6231 48.7188 60.6678C48.7188 60.7125 48.7097 60.7568 48.6921 60.7979C48.6748 60.8377 48.6501 60.8739 48.6193 60.9046C48.5878 60.9349 48.5511 60.9592 48.511 60.9766C48.4688 60.9945 48.4235 61.0036 48.3777 61.0033C48.3314 61.0036 48.2855 60.9946 48.2428 60.9766C48.2022 60.9596 48.1652 60.9352 48.1336 60.9046C48.1028 60.8728 48.0785 60.8354 48.0618 60.7944C48.0442 60.7533 48.0352 60.709 48.0352 60.6643C48.0352 60.6196 48.0442 60.5753 48.0618 60.5342C48.0788 60.4942 48.1035 60.4579 48.1346 60.4275C48.1658 60.3963 48.2029 60.3718 48.2438 60.3555C48.2865 60.3375 48.3324 60.3284 48.3787 60.3288M16.8877 59.1306C16.8877 58.5373 17.2764 58.0499 17.9117 58.0499C18.5188 58.0499 18.9284 58.5163 18.9284 59.1306C18.9284 59.7449 18.5188 60.2113 17.9117 60.2113C17.2764 60.2113 16.8877 59.7239 16.8877 59.1306ZM19.6205 59.1306V57.4422H18.8865V57.8535C18.6537 57.5495 18.3006 57.3589 17.8204 57.3589C16.8744 57.3589 16.1319 58.1009 16.1319 59.1314C16.1319 60.162 16.8739 60.904 17.8204 60.904C18.3004 60.904 18.6537 60.7131 18.8865 60.4094V60.8193H19.6197V59.1306H19.6205ZM44.4209 59.1306C44.4209 58.5373 44.8096 58.0499 45.445 58.0499C46.0528 58.0499 46.4618 58.5163 46.4618 59.1306C46.4618 59.7449 46.0528 60.2113 45.445 60.2113C44.8098 60.2113 44.4209 59.7239 44.4209 59.1306ZM47.1545 59.1306V56.0869H46.4199V57.8535C46.1871 57.5495 45.8339 57.3589 45.3537 57.3589C44.4077 57.3589 43.6653 58.1009 43.6653 59.1314C43.6653 60.162 44.4073 60.904 45.3537 60.904C45.8339 60.904 46.1871 60.7131 46.4199 60.4094V60.8193H47.1545V59.1306ZM28.7302 58.0151C29.2032 58.0151 29.507 58.3117 29.5845 58.8339H27.8331C27.9115 58.3465 28.2074 58.0151 28.7304 58.0151M28.745 57.357C27.7558 57.357 27.0638 58.0768 27.0638 59.1296C27.0638 60.2029 27.7836 60.9021 28.7941 60.9021C29.3025 60.9021 29.7681 60.7752 30.1778 60.4291L29.8181 59.8852C29.5351 60.1114 29.1748 60.2383 28.8361 60.2383C28.3631 60.2383 27.9325 60.0193 27.8265 59.4115H30.3329C30.3401 59.3202 30.3475 59.2281 30.3475 59.1294C30.3401 58.077 29.6894 57.3568 28.7446 57.3568M37.6063 59.1294C37.6063 58.5361 37.995 58.0487 38.6302 58.0487C39.2373 58.0487 39.647 58.5151 39.647 59.1294C39.647 59.7437 39.2373 60.2101 38.6302 60.2101C37.995 60.2101 37.6061 59.7227 37.6061 59.1294M40.3388 59.1294V57.4422H39.6053V57.8535C39.3716 57.5495 39.0193 57.3589 38.5391 57.3589C37.5931 57.3589 36.8507 58.1009 36.8507 59.1314C36.8507 60.162 37.5927 60.904 38.5391 60.904C39.0193 60.904 39.3716 60.7131 39.6053 60.4094V60.8193H40.339V59.1306L40.3388 59.1294ZM33.4613 59.1294C33.4613 60.1533 34.1741 60.9019 35.262 60.9019C35.7704 60.9019 36.1091 60.7888 36.4754 60.4995L36.1229 59.9061C35.8473 60.1042 35.558 60.2101 35.2386 60.2101C34.6527 60.2029 34.2218 59.7793 34.2218 59.1294C34.2218 58.4795 34.6527 58.0561 35.2386 58.0487C35.5571 58.0487 35.8465 58.1546 36.1229 58.3526L36.4754 57.7593C36.1085 57.4699 35.7698 57.3568 35.262 57.3568C34.1741 57.3568 33.4613 58.1052 33.4613 59.1294ZM42.9235 57.3568C42.5001 57.3568 42.2243 57.5549 42.0336 57.8514V57.4422H41.3062V60.8174H42.041V58.9254C42.041 58.3668 42.281 58.0565 42.7608 58.0565C42.9179 58.0542 43.074 58.0831 43.2199 58.1414L43.4461 57.4496C43.2836 57.3856 43.0718 57.3575 42.9231 57.3575M23.2493 57.7106C22.8962 57.4778 22.4096 57.3575 21.8728 57.3575C21.0177 57.3575 20.4672 57.7673 20.4672 58.438C20.4672 58.9883 20.877 59.3278 21.6318 59.4338L21.9785 59.4831C22.381 59.5397 22.571 59.6456 22.571 59.8362C22.571 60.0972 22.3037 60.2461 21.8017 60.2461C21.2933 60.2461 20.9264 60.0836 20.679 59.893L20.3341 60.4653C20.7366 60.7619 21.2449 60.9034 21.7955 60.9034C22.7703 60.9034 23.3352 60.4443 23.3352 59.8017C23.3352 59.2084 22.8906 58.898 22.156 58.7921L21.8101 58.7419C21.4923 58.7008 21.2377 58.6368 21.2377 58.4106C21.2377 58.1638 21.4777 58.0153 21.8804 58.0153C22.3113 58.0153 22.7283 58.1778 22.9328 58.3047L23.2505 57.7114L23.2493 57.7106ZM32.7199 57.3581C32.2965 57.3581 32.0207 57.5561 31.8309 57.8527V57.4422H31.1035V60.8174H31.8374V58.9254C31.8374 58.3668 32.0774 58.0565 32.5572 58.0565C32.7143 58.0542 32.8704 58.0831 33.0163 58.1414L33.2425 57.4496C33.08 57.3856 32.8682 57.3575 32.7195 57.3575M26.4565 57.4422H25.2563V56.4182H24.5143V57.4422H23.8296V58.113H24.5143V59.6528C24.5143 60.4359 24.8182 60.9023 25.6865 60.9023C26.005 60.9023 26.3719 60.8036 26.6047 60.6414L26.3927 60.0129C26.1737 60.1398 25.9337 60.2037 25.7428 60.2037C25.3759 60.2037 25.2563 59.9775 25.2563 59.6388V58.1137H26.4565V57.4422ZM15.4829 60.8182V58.7C15.4829 57.9022 14.9745 57.3655 14.155 57.3583C13.7241 57.3511 13.2797 57.4852 12.9685 57.9588C12.7357 57.5845 12.3689 57.3583 11.8531 57.3583C11.4926 57.3583 11.1403 57.4642 10.8645 57.8595V57.4422H10.1299V60.8174H10.8702V58.9459C10.8702 58.36 11.1952 58.0487 11.697 58.0487C12.1844 58.0487 12.431 58.3664 12.431 58.9385V60.817H13.173V58.9455C13.173 58.3596 13.5117 58.0483 13.9989 58.0483C14.5001 58.0483 14.7392 58.366 14.7392 58.9381V60.8166L15.4829 60.8182Z" fill="#231F20"/>
<path d="M48.7392 49.5907V49.0972H48.6107L48.462 49.4359L48.3141 49.0972H48.1852V49.5907H48.2765V49.2189L48.4155 49.5397H48.5101L48.6492 49.2181V49.5907H48.7396H48.7392ZM47.9238 49.5907V49.1817H48.0883V49.0984H47.668V49.1817H47.8325V49.5907H47.923H47.9238Z" fill="#F79410"/>
<path d="M34.1299 51.7075H23.0068V31.7178H34.1301L34.1299 51.7075Z" fill="#FF5F00"/>
<path d="M23.7123 41.713C23.7123 37.6581 25.6109 34.046 28.5674 31.7182C26.3295 29.9535 23.5616 28.9958 20.7116 29C13.6911 29 8.00024 34.6917 8.00024 41.713C8.00024 48.7343 13.6911 54.426 20.7116 54.426C23.5616 54.4303 26.3297 53.4726 28.5676 51.7079C25.6113 49.3805 23.7123 45.7681 23.7123 41.713Z" fill="#EB001B"/>
<path d="M49.1363 41.713C49.1363 48.7343 43.4454 54.426 36.4249 54.426C33.5746 54.4302 30.8063 53.4725 28.5679 51.7079C31.5252 49.3801 33.4238 45.7681 33.4238 41.713C33.4238 37.6579 31.5252 34.046 28.5679 31.7182C30.8062 29.9536 33.5745 28.9959 36.4247 29C43.4452 29 49.1361 34.6917 49.1361 41.713" fill="#F79E1B"/>
</g>
<defs>
<clipPath id="clip0_3_259">
<rect width="60.8" height="38" fill="white" transform="translate(72 10)"/>
</clipPath>
<clipPath id="clip1_3_259">
<rect width="58.4975" height="19" fill="white" transform="translate(0.539551)"/>
</clipPath>
<clipPath id="clip2_3_259">
<rect width="41.1311" height="32" fill="white" transform="translate(8 29)"/>
</clipPath>
</defs>
</svg>
