<svg width="14" height="13" viewBox="0 0 14 13" fill="none" xmlns="http://www.w3.org/2000/svg">
<path d="M3.28016 9.8199C1.7935 8.84656 0.833496 7.3799 0.833496 6.09323C0.833496 3.90656 3.5935 1.22656 7.00016 1.22656C8.3935 1.22656 9.68683 1.67323 10.7268 2.36656" stroke="#130F26" stroke-width="1.5" stroke-linecap="round" stroke-linejoin="round"/>
<path d="M12.2332 3.74023C12.8272 4.49357 13.1732 5.3269 13.1732 6.09357C13.1732 8.28023 10.4066 10.9602 6.99992 10.9602C6.39325 10.9602 5.80058 10.8736 5.24658 10.7202" stroke="#130F26" stroke-width="1.5" stroke-linecap="round" stroke-linejoin="round"/>
<path d="M5.51072 7.57812C5.11406 7.18545 4.89206 6.65012 4.89406 6.09212C4.89139 4.92878 5.83272 3.98345 6.99672 3.98145C7.55672 3.98012 8.09406 4.20212 8.49006 4.59812" stroke="#130F26" stroke-width="1.5" stroke-linecap="round" stroke-linejoin="round"/>
<path d="M9.07268 6.46606C8.91668 7.3274 8.24268 8.00273 7.38135 8.16073" stroke="#130F26" stroke-width="1.5" stroke-linecap="round" stroke-linejoin="round"/>
<path d="M12.2611 0.833252L1.74512 11.3493" stroke="#130F26" stroke-width="1.5" stroke-linecap="round" stroke-linejoin="round"/>
</svg>
